<svg width="126" height="33" xmlns="http://www.w3.org/2000/svg" xmlns:xlink="http://www.w3.org/1999/xlink" xml:space="preserve" overflow="hidden"><defs><clipPath id="clip0"><rect x="1076" y="653" width="126" height="33"/></clipPath></defs><g clip-path="url(#clip0)" transform="translate(-1076 -653)"><path d="M461.124 235.321 460.857 235.589C459.157 237.291 458.866 239.945 460.158 241.974L466.134 248.769 469.888 245.471 461.465 235.884C461.321 235.717 461.205 235.526 461.124 235.321Z" fill="#FFFFFF" transform="matrix(1.01818 0 0 1 723.035 432.689)"/><path d="M452.896 213.255 454.267 211.883 462.858 202.273 459.132 198.943 447.589 211.854C446.922 212.601 446.917 213.728 447.578 214.48L452.598 220.194C450.882 218.154 451.011 215.14 452.896 213.255Z" fill="#FFFFFF" transform="matrix(1.01818 0 0 1 730.372 454.056)"/><path d="M192.675 229.647C191.512 229.72 190.355 229.435 189.36 228.828 188.579 228.251 188.147 227.315 188.214 226.346L188.214 220.647 187.085 220.647 187.085 219.518 188.209 219.518 188.209 217.816 189.338 217.816 189.338 219.518 192.026 219.518 192.026 220.647 189.338 220.647 189.338 226.358C189.326 226.715 189.411 227.069 189.583 227.382 189.75 227.662 189.988 227.892 190.274 228.047 190.603 228.226 190.96 228.348 191.33 228.407 191.774 228.482 192.224 228.518 192.675 228.515L193.984 228.515 193.984 229.643Z" fill="#FFFFFF" transform="matrix(1.01818 0 0 1 885.869 442.969)"/><path d="M214.225 229.572 215.229 230.092C215.109 230.415 214.913 230.703 214.656 230.931 214.376 231.178 214.059 231.379 213.715 231.525 213.315 231.693 212.897 231.815 212.469 231.886 211.983 231.97 211.492 232.011 210.999 232.009 210.39 232.013 209.783 231.947 209.189 231.812 208.669 231.698 208.173 231.488 207.729 231.193 207.326 230.923 206.995 230.561 206.761 230.136 206.516 229.663 206.396 229.136 206.412 228.604L206.412 224.984C206.399 224.465 206.513 223.951 206.743 223.487 206.962 223.066 207.278 222.703 207.666 222.429 208.094 222.134 208.575 221.921 209.081 221.802 209.674 221.66 210.281 221.591 210.891 221.596 211.495 221.591 212.096 221.661 212.683 221.802 213.193 221.923 213.676 222.135 214.108 222.429 214.502 222.704 214.827 223.066 215.058 223.487 215.299 223.948 215.419 224.463 215.407 224.984L215.407 227.242 207.54 227.242 207.54 228.628C207.527 229.006 207.617 229.379 207.8 229.709 207.975 229.999 208.222 230.238 208.517 230.402 208.857 230.588 209.228 230.713 209.611 230.772 210.071 230.847 210.537 230.883 211.003 230.88 211.717 230.912 212.431 230.796 213.099 230.54 213.566 230.342 213.959 230.004 214.225 229.572ZM207.54 224.988 207.54 226.113 214.278 226.113 214.278 224.984C214.279 224.691 214.218 224.4 214.099 224.132 213.969 223.851 213.772 223.604 213.526 223.415 213.212 223.181 212.856 223.011 212.477 222.913 211.96 222.777 211.426 222.714 210.891 222.725 210.241 222.698 209.591 222.792 208.974 223.003 208.595 223.138 208.254 223.362 207.979 223.657 207.789 223.87 207.659 224.131 207.603 224.411 207.567 224.6 207.546 224.792 207.54 224.985Z" fill="#FFFFFF" transform="matrix(1.01818 0 0 1 874.311 440.75)"/><path d="M233.86 224.967C233.845 224.435 233.962 223.909 234.201 223.434 234.424 223.015 234.743 222.655 235.133 222.385 235.559 222.097 236.036 221.893 236.54 221.785 237.119 221.656 237.711 221.593 238.305 221.597 239.138 221.583 239.968 221.722 240.751 222.006 241.474 222.285 242.074 222.813 242.445 223.493L241.423 223.995C241.169 223.499 240.722 223.129 240.186 222.973 239.575 222.797 238.94 222.712 238.303 222.722 237.859 222.719 237.415 222.755 236.977 222.83 236.608 222.889 236.253 223.013 235.928 223.199 235.642 223.367 235.404 223.605 235.238 223.892 235.061 224.218 234.975 224.586 234.987 224.957L234.987 228.629C234.971 229.016 235.074 229.4 235.282 229.727 235.481 230.016 235.745 230.253 236.053 230.42 236.384 230.6 236.745 230.722 237.117 230.781 237.508 230.846 237.904 230.879 238.3 230.879 238.93 230.891 239.559 230.806 240.164 230.628 240.695 230.456 241.142 230.091 241.418 229.607L242.401 230.144C242.048 230.806 241.466 231.318 240.763 231.584 239.976 231.878 239.14 232.021 238.299 232.007 237.698 232.012 237.1 231.943 236.516 231.801 236.013 231.682 235.536 231.472 235.109 231.183 234.718 230.912 234.402 230.548 234.186 230.125 233.956 229.657 233.842 229.141 233.855 228.619Z" fill="#FFFFFF" transform="matrix(1.01818 0 0 1 857.894 440.75)"/><path d="M259.876 224.941C259.863 224.415 259.975 223.892 260.204 223.418 260.421 222.993 260.741 222.628 261.136 222.36 261.572 222.07 262.057 221.864 262.569 221.751 263.166 221.615 263.776 221.549 264.388 221.554 264.997 221.548 265.605 221.614 266.198 221.751 266.706 221.865 267.189 222.071 267.623 222.36 268.018 222.63 268.341 222.994 268.564 223.418 268.801 223.89 268.918 224.413 268.905 224.941L268.905 231.843 267.782 231.843 267.782 224.93C267.794 224.56 267.704 224.194 267.522 223.871 267.348 223.584 267.104 223.346 266.812 223.18 266.476 222.994 266.112 222.866 265.734 222.803 265.289 222.723 264.838 222.683 264.386 222.686 263.923 222.682 263.46 222.722 263.003 222.803 262.627 222.865 262.265 222.993 261.934 223.18 261.649 223.346 261.413 223.584 261.251 223.871 261.079 224.197 260.995 224.562 261.005 224.93L261.005 231.843 259.876 231.843Z" fill="#FFFFFF" transform="matrix(1.01818 0 0 1 842.335 440.775)"/><path d="M287.846 228.604 287.846 224.967C287.788 223.99 288.222 223.048 289.002 222.457 289.99 221.823 291.155 221.522 292.326 221.597 293.501 221.524 294.669 221.819 295.669 222.439 296.465 223.027 296.908 223.979 296.844 224.967L296.844 228.605C296.911 229.599 296.469 230.56 295.671 231.158 294.673 231.785 293.504 232.082 292.329 232.009 291.158 232.085 289.994 231.787 289.004 231.158 288.214 230.555 287.779 229.595 287.846 228.604ZM295.713 228.617 295.713 224.971C295.708 224.772 295.69 224.574 295.659 224.378 295.61 224.1 295.482 223.841 295.291 223.633 295.013 223.342 294.669 223.124 294.288 222.995 293.654 222.79 292.989 222.698 292.323 222.726 291.667 222.699 291.012 222.79 290.388 222.995 290.01 223.125 289.669 223.344 289.393 223.633 289.202 223.841 289.075 224.1 289.025 224.378 288.994 224.574 288.976 224.772 288.971 224.971L288.971 228.617C288.977 228.809 288.995 229 289.025 229.19 289.075 229.471 289.202 229.732 289.393 229.944 289.667 230.239 290.008 230.465 290.388 230.599 291.01 230.811 291.666 230.905 292.323 230.877 292.989 230.906 293.656 230.811 294.288 230.599 294.671 230.465 295.016 230.24 295.291 229.944 295.482 229.732 295.609 229.471 295.659 229.19 295.689 229 295.707 228.809 295.713 228.617Z" fill="#FFFFFF" transform="matrix(1.01818 0 0 1 825.608 440.75)"/><path d="M315.729 224.967C315.714 224.435 315.831 223.909 316.07 223.434 316.292 223.015 316.612 222.655 317.001 222.385 317.428 222.097 317.905 221.893 318.409 221.785 318.988 221.656 319.58 221.593 320.174 221.597 321.007 221.583 321.836 221.722 322.621 222.006 323.343 222.286 323.943 222.813 324.314 223.493L323.292 223.995C323.038 223.499 322.591 223.129 322.056 222.973 321.444 222.797 320.81 222.712 320.173 222.722 319.728 222.719 319.285 222.755 318.847 222.83 318.477 222.889 318.122 223.013 317.798 223.199 317.511 223.367 317.274 223.605 317.108 223.892 316.931 224.218 316.844 224.586 316.857 224.957L316.857 228.629C316.841 229.016 316.944 229.4 317.152 229.727 317.35 230.016 317.615 230.254 317.923 230.42 318.255 230.6 318.615 230.722 318.987 230.781 319.378 230.846 319.774 230.879 320.17 230.879 320.801 230.891 321.43 230.806 322.034 230.628 322.566 230.456 323.014 230.092 323.289 229.607L324.272 230.144C323.918 230.806 323.337 231.318 322.635 231.584 321.847 231.878 321.011 232.021 320.17 232.007 319.57 232.012 318.971 231.943 318.387 231.801 317.885 231.682 317.407 231.472 316.98 231.183 316.59 230.912 316.273 230.548 316.057 230.125 315.827 229.657 315.714 229.141 315.726 228.619Z" fill="#FFFFFF" transform="matrix(1.01818 0 0 1 808.932 440.75)"/><path d="M341.745 228.604 341.745 224.967C341.688 223.99 342.122 223.048 342.901 222.457 343.889 221.823 345.054 221.522 346.226 221.597 347.4 221.525 348.567 221.819 349.566 222.439 350.362 223.027 350.804 223.979 350.74 224.967L350.74 228.605C350.805 229.599 350.364 230.56 349.566 231.158 348.569 231.785 347.399 232.083 346.223 232.009 345.053 232.085 343.888 231.787 342.899 231.158 342.111 230.553 341.678 229.594 341.745 228.604ZM349.613 228.617 349.613 224.971C349.608 224.772 349.59 224.574 349.559 224.378 349.509 224.1 349.382 223.841 349.192 223.633 348.913 223.342 348.57 223.124 348.188 222.995 347.554 222.79 346.889 222.698 346.223 222.726 345.568 222.699 344.912 222.79 344.288 222.995 343.91 223.125 343.569 223.344 343.293 223.633 343.102 223.841 342.975 224.1 342.926 224.378 342.895 224.574 342.877 224.772 342.872 224.971L342.872 228.617C342.877 228.809 342.895 229 342.926 229.19 342.976 229.471 343.103 229.732 343.293 229.944 343.568 230.239 343.908 230.464 344.288 230.599 344.91 230.811 345.567 230.905 346.223 230.877 346.89 230.906 347.556 230.811 348.188 230.599 348.571 230.465 348.916 230.24 349.192 229.944 349.382 229.732 349.509 229.471 349.559 229.19 349.589 229 349.607 228.809 349.613 228.617Z" fill="#FFFFFF" transform="matrix(1.01818 0 0 1 793.372 440.75)"/><path d="M384.216 224.985 384.216 231.866 383.087 231.866 383.087 224.967C383.146 224.307 382.869 223.663 382.351 223.252 381.733 222.864 381.011 222.679 380.283 222.723 379.9 222.719 379.516 222.759 379.141 222.84 378.826 222.906 378.527 223.034 378.261 223.216 378.013 223.393 377.815 223.631 377.688 223.907 377.54 224.24 377.47 224.602 377.48 224.967L377.48 231.862 376.351 231.862 376.351 224.967C376.414 224.306 376.14 223.658 375.623 223.243 375.001 222.859 374.276 222.678 373.547 222.723 373.164 222.719 372.781 222.755 372.406 222.831 372.092 222.89 371.795 223.016 371.534 223.199 371.29 223.378 371.095 223.616 370.967 223.89 370.819 224.229 370.748 224.597 370.76 224.967L370.76 231.863 369.631 231.863 369.631 224.981C369.617 224.452 369.721 223.925 369.935 223.44 370.125 223.026 370.41 222.664 370.767 222.382 371.137 222.1 371.56 221.895 372.011 221.782 372.514 221.653 373.032 221.59 373.551 221.594 374.211 221.585 374.869 221.69 375.493 221.907 376.063 222.11 376.559 222.481 376.915 222.971 377.263 222.502 377.736 222.139 378.279 221.923 378.922 221.686 379.604 221.573 380.289 221.591 380.816 221.587 381.34 221.653 381.85 221.788 382.301 221.907 382.726 222.114 383.096 222.398 383.453 222.678 383.737 223.041 383.922 223.455 384.13 223.937 384.23 224.46 384.216 224.985Z" fill="#FFFFFF" transform="matrix(1.01818 0 0 1 776.696 440.75)"/><path d="M411.062 235.036 411.062 225.003C411.047 224.464 411.164 223.93 411.402 223.447 411.626 223.021 411.952 222.657 412.352 222.389 412.786 222.104 413.269 221.9 413.776 221.789 414.356 221.66 414.948 221.597 415.541 221.601 416.159 221.595 416.777 221.665 417.378 221.807 417.89 221.925 418.374 222.141 418.803 222.443 419.189 222.721 419.505 223.086 419.725 223.508 419.956 223.972 420.069 224.486 420.057 225.004L420.057 228.606C420.071 229.139 419.957 229.668 419.725 230.148 419.507 230.573 419.186 230.937 418.791 231.205 418.353 231.495 417.866 231.702 417.354 231.815 416.755 231.95 416.144 232.017 415.531 232.012 414.348 232.095 413.17 231.778 412.19 231.111L412.19 235.041ZM412.191 224.974 412.191 228.628C412.196 228.827 412.217 229.026 412.254 229.222 412.309 229.5 412.439 229.759 412.631 229.969 412.904 230.257 413.243 230.477 413.619 230.608 414.236 230.813 414.884 230.905 415.533 230.878 415.982 230.88 416.43 230.844 416.872 230.77 417.248 230.71 417.613 230.588 417.95 230.41 418.246 230.25 418.495 230.014 418.669 229.725 418.853 229.396 418.943 229.023 418.93 228.646L418.93 224.991C418.94 224.627 418.854 224.267 418.678 223.947 418.511 223.659 418.272 223.418 417.987 223.246 417.657 223.052 417.294 222.917 416.917 222.849 416.461 222.762 415.998 222.72 415.534 222.723 415.076 222.719 414.619 222.759 414.168 222.84 413.799 222.905 413.443 223.033 413.117 223.219 412.832 223.385 412.596 223.624 412.435 223.912 412.263 224.24 412.18 224.606 412.193 224.976Z" fill="#FFFFFF" transform="matrix(1.01818 0 0 1 751.917 440.75)"/><path d="M237.63 262.833 237.63 263.555 236.1 263.555 236.1 268.019 235.371 268.019 235.371 263.555 233.861 263.555 233.861 262.833Z" fill="#FFFFFF" transform="matrix(1.01818 0 0 1 857.894 416.53)"/><path d="M246.604 268.197 247.259 268.584C247.074 268.837 246.821 269.033 246.53 269.149 246.209 269.284 245.863 269.352 245.515 269.349 245.279 269.35 245.045 269.32 244.817 269.26 244.608 269.206 244.409 269.115 244.23 268.991 243.87 268.742 243.662 268.327 243.676 267.889L243.676 266.438C243.671 266.223 243.721 266.011 243.819 265.819 243.913 265.641 244.048 265.487 244.21 265.369 244.386 265.242 244.584 265.148 244.794 265.093 245.029 265.03 245.273 264.999 245.517 265 245.759 264.998 245.999 265.025 246.234 265.082 246.445 265.133 246.644 265.221 246.822 265.343 246.988 265.459 247.124 265.612 247.22 265.79 247.322 265.989 247.373 266.211 247.367 266.435L247.367 267.529 244.401 267.529 244.401 267.901C244.4 268.01 244.431 268.117 244.491 268.209 244.553 268.302 244.635 268.38 244.73 268.438 244.839 268.503 244.957 268.55 245.081 268.577 245.222 268.609 245.366 268.625 245.51 268.624 245.719 268.625 245.927 268.589 246.125 268.517 246.31 268.453 246.474 268.343 246.604 268.197ZM244.401 266.438 244.401 266.81 246.633 266.81 246.633 266.438C246.636 266.327 246.604 266.217 246.544 266.123 246.481 266.029 246.396 265.952 246.298 265.898 246.187 265.835 246.066 265.79 245.94 265.765 245.798 265.736 245.653 265.722 245.508 265.722 245.362 265.722 245.218 265.737 245.075 265.769 244.951 265.795 244.831 265.843 244.721 265.908 244.627 265.965 244.546 266.042 244.486 266.133 244.428 266.224 244.399 266.331 244.401 266.438Z" fill="#FFFFFF" transform="matrix(1.01818 0 0 1 852.026 415.256)"/><path d="M255.2 266.413C255.195 266.192 255.248 265.974 255.354 265.78 255.456 265.602 255.596 265.45 255.764 265.333 255.943 265.21 256.143 265.121 256.354 265.068 256.579 265.01 256.811 264.982 257.044 264.982 257.222 264.982 257.401 265 257.577 265.032 257.754 265.065 257.926 265.122 258.089 265.2 258.252 265.28 258.402 265.387 258.531 265.514 258.672 265.656 258.787 265.823 258.868 266.006L258.213 266.306C258.168 266.201 258.101 266.105 258.016 266.027 257.933 265.951 257.837 265.888 257.734 265.841 257.627 265.793 257.514 265.758 257.398 265.737 257.282 265.716 257.165 265.705 257.047 265.704 256.901 265.704 256.757 265.719 256.614 265.751 256.49 265.778 256.37 265.825 256.26 265.89 256.166 265.947 256.084 266.023 256.021 266.112 255.96 266.201 255.929 266.305 255.931 266.413L255.931 267.901C255.927 268.022 255.965 268.141 256.039 268.237 256.112 268.329 256.205 268.404 256.31 268.458 256.424 268.517 256.546 268.557 256.672 268.58 256.796 268.603 256.921 268.615 257.047 268.616 257.278 268.616 257.506 268.571 257.72 268.483 257.939 268.395 258.121 268.235 258.235 268.029L258.879 268.323C258.787 268.501 258.668 268.665 258.525 268.806 258.394 268.933 258.245 269.04 258.081 269.121 257.921 269.199 257.752 269.257 257.577 269.289 257.402 269.322 257.225 269.339 257.047 269.339 256.803 269.341 256.56 269.31 256.324 269.246 256.114 269.19 255.915 269.097 255.738 268.971 255.574 268.853 255.44 268.699 255.345 268.521 255.247 268.329 255.198 268.117 255.202 267.902Z" fill="#FFFFFF" transform="matrix(1.01818 0 0 1 845.132 415.267)"/><path d="M269.513 266.431C269.515 266.312 269.477 266.196 269.402 266.103 269.325 266.011 269.23 265.935 269.123 265.881 269.007 265.822 268.883 265.781 268.755 265.759 268.632 265.736 268.508 265.724 268.383 265.723 268.257 265.724 268.131 265.736 268.007 265.759 267.881 265.781 267.759 265.822 267.645 265.881 267.54 265.935 267.447 266.011 267.374 266.103 267.302 266.196 267.263 266.313 267.266 266.431L267.266 269.292 266.537 269.292 266.537 266.431C266.533 266.218 266.582 266.008 266.68 265.819 266.775 265.641 266.91 265.487 267.074 265.369 267.252 265.242 267.451 265.149 267.662 265.093 267.898 265.03 268.142 264.999 268.386 265 268.634 264.999 268.882 265.031 269.122 265.097 269.334 265.154 269.532 265.248 269.71 265.376 269.872 265.494 270.006 265.647 270.101 265.823 270.199 266.011 270.248 266.22 270.244 266.431L270.244 269.293 269.514 269.293Z" fill="#FFFFFF" transform="matrix(1.01818 0 0 1 838.352 415.256)"/><path d="M278.272 267.89 278.272 266.439C278.268 266.223 278.317 266.011 278.416 265.82 278.51 265.642 278.644 265.488 278.806 265.37 278.982 265.243 279.18 265.149 279.39 265.094 279.626 265.031 279.87 265 280.114 265.001 280.359 265 280.603 265.031 280.841 265.094 281.052 265.149 281.252 265.242 281.428 265.37 281.59 265.488 281.724 265.642 281.819 265.82 281.917 266.011 281.966 266.223 281.962 266.439L281.962 267.89C281.966 268.106 281.917 268.32 281.819 268.512 281.725 268.693 281.591 268.849 281.428 268.971 281.252 269.101 281.053 269.197 280.841 269.253 280.604 269.319 280.359 269.352 280.114 269.35 279.869 269.352 279.626 269.32 279.39 269.253 279.18 269.196 278.981 269.1 278.806 268.971 278.643 268.849 278.51 268.693 278.416 268.512 278.317 268.32 278.268 268.106 278.272 267.89ZM279.002 267.89C278.999 268.002 279.031 268.111 279.091 268.205 279.154 268.3 279.238 268.377 279.337 268.434 279.446 268.499 279.566 268.548 279.69 268.577 279.829 268.611 279.97 268.628 280.113 268.627 280.256 268.628 280.399 268.611 280.538 268.577 280.665 268.548 280.785 268.499 280.896 268.434 280.994 268.377 281.077 268.298 281.142 268.205 281.204 268.112 281.237 268.002 281.234 267.89L281.234 266.439C281.236 266.33 281.204 266.223 281.142 266.134 281.076 266.043 280.993 265.966 280.896 265.909 280.785 265.844 280.665 265.797 280.538 265.77 280.398 265.738 280.256 265.722 280.113 265.723 279.97 265.722 279.829 265.738 279.69 265.77 279.566 265.797 279.446 265.844 279.337 265.909 279.239 265.965 279.155 266.042 279.091 266.134 279.031 266.224 279 266.331 279.002 266.439Z" fill="#FFFFFF" transform="matrix(1.01818 0 0 1 831.333 415.256)"/><path d="M289.974 262.815 290.704 262.815 290.704 268.008 289.974 268.008Z" fill="#FFFFFF" transform="matrix(1.01818 0 0 1 824.335 416.54)"/><path d="M294.516 267.89 294.516 266.439C294.512 266.223 294.561 266.011 294.659 265.82 294.754 265.642 294.888 265.488 295.05 265.37 295.226 265.243 295.424 265.149 295.634 265.094 295.869 265.031 296.113 265 296.357 265.001 296.603 265 296.847 265.031 297.084 265.094 297.296 265.149 297.495 265.242 297.672 265.37 297.834 265.488 297.968 265.642 298.063 265.82 298.161 266.011 298.21 266.223 298.206 266.439L298.206 267.89C298.21 268.106 298.161 268.32 298.063 268.512 297.968 268.693 297.835 268.849 297.672 268.971 297.495 269.101 297.296 269.197 297.084 269.253 296.848 269.319 296.603 269.352 296.357 269.35 296.113 269.352 295.869 269.32 295.634 269.253 295.423 269.196 295.225 269.1 295.05 268.971 294.887 268.849 294.754 268.693 294.659 268.512 294.561 268.32 294.512 268.106 294.516 267.89ZM295.246 267.89C295.243 268.002 295.274 268.111 295.335 268.205 295.398 268.3 295.482 268.377 295.58 268.434 295.69 268.499 295.81 268.548 295.934 268.577 296.072 268.611 296.214 268.628 296.357 268.627 296.5 268.628 296.643 268.611 296.782 268.577 296.908 268.548 297.029 268.499 297.14 268.434 297.237 268.377 297.321 268.298 297.386 268.205 297.448 268.112 297.481 268.002 297.478 267.89L297.478 266.439C297.48 266.33 297.448 266.223 297.386 266.134 297.32 266.043 297.237 265.966 297.14 265.909 297.029 265.844 296.908 265.797 296.782 265.77 296.642 265.738 296.5 265.722 296.357 265.723 296.214 265.722 296.072 265.738 295.934 265.77 295.81 265.797 295.69 265.844 295.58 265.909 295.483 265.965 295.399 266.042 295.335 266.134 295.275 266.224 295.244 266.331 295.246 266.439Z" fill="#FFFFFF" transform="matrix(1.01818 0 0 1 821.618 415.256)"/><path d="M309.901 266.42 309.901 269.36C309.908 269.576 309.859 269.79 309.761 269.982 309.669 270.153 309.535 270.299 309.374 270.408 309.195 270.525 308.996 270.608 308.786 270.653 308.545 270.709 308.297 270.736 308.049 270.735 307.881 270.735 307.712 270.724 307.544 270.702 307.381 270.681 307.222 270.642 307.068 270.584 306.746 270.465 306.468 270.254 306.266 269.976L306.839 269.554C306.898 269.637 306.975 269.708 307.064 269.761 307.158 269.819 307.259 269.866 307.364 269.9 307.474 269.936 307.587 269.964 307.701 269.982 307.815 270.001 307.931 270.011 308.047 270.011 308.194 270.011 308.342 270 308.487 269.975 308.612 269.955 308.732 269.916 308.845 269.861 308.941 269.814 309.024 269.744 309.085 269.657 309.142 269.569 309.171 269.465 309.167 269.36L309.167 269.067C309.004 269.143 308.835 269.205 308.663 269.253 308.461 269.311 308.253 269.339 308.044 269.338 307.808 269.339 307.574 269.31 307.346 269.249 307.137 269.195 306.94 269.104 306.763 268.981 306.598 268.863 306.46 268.709 306.363 268.53 306.26 268.335 306.208 268.115 306.213 267.894L306.213 266.42C306.208 266.202 306.257 265.988 306.356 265.794 306.451 265.616 306.585 265.462 306.747 265.343 306.921 265.217 307.119 265.125 307.327 265.072 307.562 265.01 307.805 264.981 308.048 264.982 308.286 264.981 308.523 265.01 308.753 265.068 308.964 265.12 309.163 265.21 309.341 265.333 309.508 265.449 309.647 265.602 309.746 265.78 309.853 265.976 309.906 266.196 309.901 266.42ZM309.172 266.42C309.174 266.305 309.141 266.192 309.075 266.098 309.009 266.006 308.922 265.93 308.821 265.876 308.709 265.817 308.588 265.773 308.464 265.748 308.327 265.718 308.188 265.704 308.049 265.704 307.905 265.704 307.763 265.719 307.623 265.751 307.497 265.778 307.376 265.825 307.265 265.89 307.168 265.947 307.083 266.024 307.02 266.116 306.96 266.206 306.929 266.312 306.93 266.42L306.93 267.894C306.929 268.002 306.96 268.11 307.02 268.201 307.082 268.295 307.164 268.372 307.259 268.431 307.369 268.496 307.489 268.544 307.614 268.57 307.755 268.602 307.9 268.617 308.046 268.616 308.194 268.617 308.342 268.602 308.487 268.57 308.611 268.543 308.73 268.496 308.84 268.431 308.936 268.372 309.018 268.295 309.08 268.201 309.14 268.11 309.171 268.002 309.169 267.894Z" fill="#FFFFFF" transform="matrix(1.01818 0 0 1 814.62 415.267)"/><path d="M317.9 262.833 318.637 262.833 318.637 263.397 317.9 263.397ZM318.637 268.019 317.908 268.019 317.908 263.806 318.637 263.806Z" fill="#FFFFFF" transform="matrix(1.01818 0 0 1 807.633 416.53)"/><path d="M324.059 264.999C324.296 264.996 324.533 265.024 324.763 265.081 324.971 265.131 325.168 265.22 325.345 265.342 325.509 265.456 325.645 265.607 325.742 265.782 325.845 265.975 325.896 266.192 325.89 266.412L325.89 267.871C325.896 268.099 325.851 268.325 325.758 268.533 325.672 268.714 325.542 268.871 325.381 268.991 325.207 269.118 325.008 269.209 324.797 269.259 324.552 269.319 324.301 269.347 324.048 269.345 323.804 269.346 323.562 269.318 323.325 269.263 323.115 269.217 322.916 269.135 322.737 269.018 322.573 268.91 322.438 268.765 322.342 268.593 322.242 268.405 322.193 268.194 322.199 267.98 322.197 267.812 322.232 267.646 322.303 267.495 322.37 267.354 322.468 267.23 322.589 267.131 322.719 267.027 322.869 266.948 323.028 266.9 323.214 266.843 323.407 266.815 323.601 266.818L325.157 266.818 325.157 266.414C325.16 266.308 325.131 266.202 325.075 266.112 325.014 266.023 324.933 265.948 324.839 265.896 324.729 265.835 324.612 265.79 324.489 265.763 324.348 265.731 324.204 265.716 324.06 265.717 323.66 265.682 323.271 265.854 323.03 266.174L322.4 265.803C322.558 265.535 322.792 265.322 323.073 265.191 323.384 265.056 323.72 264.99 324.059 264.999ZM325.16 267.874 325.16 267.546 323.605 267.546C323.491 267.543 323.378 267.56 323.27 267.596 323.195 267.623 323.125 267.663 323.063 267.714 323.016 267.753 322.979 267.802 322.955 267.857 322.939 267.898 322.929 267.939 322.927 267.983 322.924 268.088 322.955 268.191 323.016 268.276 323.081 268.361 323.165 268.43 323.262 268.476 323.374 268.532 323.494 268.571 323.619 268.591 323.761 268.616 323.905 268.628 324.05 268.627 324.258 268.635 324.466 268.606 324.663 268.538 324.788 268.493 324.901 268.421 324.995 268.327 325.062 268.258 325.109 268.174 325.134 268.081 325.15 268.014 325.158 267.945 325.16 267.876Z" fill="#FFFFFF" transform="matrix(1.01818 0 0 1 805.062 415.256)"/><path d="M341.687 268.197 342.342 268.584C342.157 268.837 341.904 269.033 341.613 269.149 341.291 269.284 340.945 269.352 340.597 269.349 340.361 269.35 340.127 269.32 339.899 269.26 339.69 269.206 339.491 269.115 339.312 268.991 338.952 268.742 338.743 268.327 338.758 267.889L338.758 266.438C338.754 266.223 338.803 266.011 338.901 265.819 338.996 265.641 339.13 265.487 339.292 265.369 339.468 265.242 339.666 265.148 339.875 265.093 340.111 265.03 340.355 264.999 340.599 265 340.841 264.998 341.081 265.025 341.315 265.082 341.526 265.133 341.725 265.221 341.903 265.343 342.069 265.459 342.205 265.612 342.301 265.79 342.403 265.989 342.453 266.211 342.448 266.435L342.448 267.529 339.487 267.529 339.487 267.901C339.485 268.01 339.516 268.117 339.576 268.209 339.638 268.302 339.72 268.38 339.816 268.438 339.925 268.503 340.042 268.55 340.166 268.577 340.307 268.609 340.451 268.625 340.595 268.624 340.805 268.625 341.013 268.589 341.211 268.517 341.394 268.453 341.558 268.342 341.687 268.197ZM339.484 266.438 339.484 266.81 341.716 266.81 341.716 266.438C341.718 266.327 341.687 266.217 341.627 266.123 341.564 266.029 341.479 265.952 341.381 265.898 341.27 265.835 341.148 265.79 341.023 265.765 340.881 265.736 340.736 265.722 340.59 265.722 340.444 265.722 340.299 265.737 340.158 265.769 340.033 265.795 339.913 265.843 339.803 265.908 339.709 265.965 339.628 266.042 339.568 266.133 339.51 266.224 339.482 266.331 339.484 266.438Z" fill="#FFFFFF" transform="matrix(1.01818 0 0 1 795.161 415.256)"/><path d="M357.629 266.485C357.647 266.255 357.551 266.029 357.372 265.884 357.125 265.731 356.843 265.644 356.553 265.633 356.317 265.613 356.085 265.566 355.86 265.494 355.664 265.433 355.481 265.335 355.319 265.208 355.171 265.089 355.051 264.937 354.969 264.765 354.881 264.573 354.839 264.363 354.844 264.153 354.811 263.731 354.987 263.319 355.315 263.051 355.686 262.796 356.131 262.67 356.582 262.693 356.752 262.693 356.922 262.711 357.09 262.743 357.441 262.81 357.76 262.991 357.995 263.261 358.131 263.42 358.236 263.605 358.306 263.803L357.651 264.103C357.581 263.885 357.433 263.698 357.237 263.578 357.04 263.466 356.816 263.41 356.589 263.414 356.33 263.399 356.072 263.458 355.844 263.582 355.577 263.795 355.499 264.168 355.658 264.47 355.714 264.562 355.791 264.64 355.883 264.697 355.984 264.759 356.095 264.806 356.21 264.837 356.341 264.872 356.474 264.896 356.61 264.909 356.904 264.93 357.194 264.995 357.469 265.102 357.671 265.181 357.855 265.302 358.008 265.456 358.137 265.59 358.231 265.754 358.283 265.932 358.334 266.111 358.358 266.296 358.358 266.483 358.363 266.707 358.321 266.931 358.233 267.138 358.153 267.321 358.031 267.483 357.875 267.609 357.709 267.742 357.518 267.84 357.314 267.896 357.076 267.963 356.831 267.995 356.584 267.993 356.411 267.993 356.237 267.975 356.066 267.943 355.892 267.909 355.725 267.85 355.569 267.767 355.407 267.681 355.259 267.57 355.129 267.44 354.985 267.293 354.87 267.119 354.79 266.929L355.419 266.585C355.51 266.804 355.671 266.986 355.877 267.104 356.095 267.22 356.339 267.278 356.585 267.272 356.85 267.284 357.113 267.221 357.343 267.09 357.54 266.955 357.65 266.723 357.629 266.485Z" fill="#FFFFFF" transform="matrix(1.01818 0 0 1 785.571 416.611)"/><path d="M368.625 268.197 369.28 268.584C369.095 268.837 368.842 269.033 368.55 269.149 368.229 269.284 367.883 269.352 367.535 269.349 367.299 269.35 367.065 269.32 366.837 269.26 366.627 269.206 366.429 269.115 366.251 268.991 365.891 268.742 365.683 268.327 365.697 267.889L365.697 266.438C365.693 266.223 365.742 266.011 365.84 265.819 365.935 265.641 366.068 265.487 366.23 265.369 366.406 265.242 366.605 265.148 366.815 265.093 367.051 265.03 367.295 264.999 367.539 265 367.78 264.998 368.021 265.025 368.256 265.082 368.466 265.133 368.665 265.221 368.844 265.343 369.01 265.459 369.146 265.612 369.241 265.79 369.344 265.989 369.395 266.211 369.389 266.435L369.389 267.529 366.422 267.529 366.422 267.901C366.42 268.01 366.451 268.117 366.511 268.209 366.573 268.302 366.655 268.38 366.751 268.438 366.859 268.503 366.978 268.55 367.101 268.577 367.242 268.609 367.386 268.625 367.53 268.624 367.742 268.625 367.951 268.59 368.149 268.519 368.333 268.454 368.496 268.343 368.625 268.197ZM366.422 266.438 366.422 266.81 368.654 266.81 368.654 266.438C368.656 266.327 368.625 266.217 368.564 266.123 368.501 266.029 368.417 265.952 368.319 265.898 368.207 265.835 368.086 265.79 367.961 265.765 367.819 265.736 367.674 265.722 367.528 265.722 367.382 265.722 367.237 265.737 367.095 265.769 366.97 265.795 366.851 265.843 366.741 265.908 366.647 265.965 366.566 266.042 366.505 266.133 366.448 266.224 366.42 266.331 366.422 266.438Z" fill="#FFFFFF" transform="matrix(1.01818 0 0 1 779.05 415.256)"/><path d="M377.221 266.51C377.2 266.106 377.375 265.717 377.689 265.462 378.066 265.192 378.524 265.059 378.988 265.086L379.954 265.086 379.954 265.809 378.988 265.809C378.723 265.796 378.461 265.861 378.233 265.995 378.053 266.104 377.945 266.3 377.95 266.51L377.95 269.343 377.221 269.343Z" fill="#FFFFFF" transform="matrix(1.01818 0 0 1 772.156 415.206)"/><path d="M387.213 269.383 386.634 269.383 384.881 265.157 385.668 265.157 386.926 268.219 388.193 265.157 388.965 265.157Z" fill="#FFFFFF" transform="matrix(1.01818 0 0 1 767.574 415.165)"/><path d="M396.513 262.833 397.25 262.833 397.25 263.397 396.513 263.397ZM397.25 268.019 396.521 268.019 396.521 263.806 397.25 263.806Z" fill="#FFFFFF" transform="matrix(1.01818 0 0 1 760.617 416.53)"/><path d="M402.647 269.574 402.647 269.324C402.434 269.307 402.224 269.262 402.025 269.188 401.843 269.121 401.675 269.023 401.528 268.898 401.388 268.778 401.275 268.63 401.195 268.465 401.112 268.289 401.07 268.095 401.073 267.9L401.073 266.412C401.067 266.191 401.121 265.973 401.227 265.779 401.329 265.601 401.469 265.448 401.636 265.332 401.816 265.209 402.015 265.12 402.227 265.068 402.452 265.009 402.684 264.981 402.917 264.982 403.095 264.982 403.274 264.999 403.45 265.031 403.627 265.064 403.799 265.121 403.961 265.199 404.125 265.28 404.275 265.386 404.404 265.514 404.545 265.655 404.659 265.822 404.741 266.005L404.086 266.305C404.041 266.2 403.974 266.104 403.889 266.026 403.805 265.95 403.709 265.887 403.606 265.84 403.499 265.792 403.386 265.757 403.27 265.736 403.01 265.689 402.744 265.694 402.486 265.75 402.362 265.777 402.242 265.824 402.133 265.889 402.038 265.946 401.957 266.021 401.893 266.111 401.832 266.2 401.801 266.305 401.803 266.412L401.803 267.9C401.799 268.021 401.838 268.139 401.911 268.236 401.984 268.328 402.077 268.404 402.182 268.458 402.296 268.516 402.417 268.557 402.544 268.579 402.667 268.602 402.793 268.614 402.919 268.615 403.15 268.615 403.378 268.57 403.591 268.482 403.81 268.395 403.993 268.234 404.106 268.028L404.75 268.322C404.612 268.6 404.402 268.836 404.142 269.004 403.903 269.153 403.639 269.254 403.362 269.302L403.362 269.573C403.368 269.74 403.34 269.905 403.28 270.06 403.229 270.184 403.142 270.291 403.03 270.367 402.905 270.45 402.763 270.506 402.615 270.531 402.427 270.564 402.237 270.58 402.046 270.578L402.046 269.855C402.191 269.858 402.337 269.843 402.479 269.808 402.586 269.784 402.658 269.683 402.647 269.574Z" fill="#FFFFFF" transform="matrix(1.01818 0 0 1 757.891 415.267)"/><path d="M412.41 267.89 412.41 266.439C412.405 266.223 412.454 266.011 412.553 265.82 412.648 265.642 412.782 265.488 412.944 265.37 413.12 265.243 413.318 265.149 413.527 265.094 413.763 265.031 414.007 265 414.251 265.001 414.497 265 414.741 265.031 414.979 265.094 415.19 265.149 415.39 265.242 415.567 265.37 415.73 265.488 415.863 265.642 415.957 265.82 416.055 266.011 416.105 266.223 416.1 266.439L416.1 267.89C416.105 268.106 416.055 268.32 415.957 268.512 415.863 268.693 415.73 268.849 415.567 268.971 415.39 269.101 415.191 269.197 414.979 269.253 414.742 269.319 414.497 269.352 414.251 269.35 414.006 269.352 413.763 269.32 413.527 269.253 413.317 269.196 413.119 269.1 412.944 268.971 412.781 268.849 412.647 268.693 412.553 268.512 412.455 268.32 412.406 268.106 412.41 267.89ZM413.139 267.89C413.137 268.002 413.168 268.111 413.229 268.205 413.292 268.3 413.376 268.377 413.474 268.434 413.585 268.499 413.704 268.548 413.829 268.577 413.967 268.611 414.108 268.628 414.25 268.627 414.394 268.628 414.537 268.611 414.676 268.577 414.802 268.548 414.922 268.499 415.034 268.434 415.131 268.377 415.215 268.299 415.279 268.205 415.342 268.113 415.375 268.002 415.373 267.89L415.373 266.439C415.374 266.33 415.342 266.223 415.279 266.134 415.214 266.043 415.13 265.966 415.034 265.909 414.922 265.844 414.802 265.797 414.676 265.77 414.536 265.738 414.394 265.722 414.25 265.723 414.109 265.722 413.967 265.738 413.829 265.77 413.704 265.797 413.584 265.844 413.474 265.909 413.377 265.965 413.292 266.042 413.229 266.134 413.168 266.224 413.137 266.331 413.139 266.439Z" fill="#FFFFFF" transform="matrix(1.01818 0 0 1 751.111 415.256)"/><path d="M425.783 266.788C426.028 266.787 426.273 266.81 426.514 266.856 426.72 266.895 426.917 266.968 427.098 267.075 427.259 267.17 427.391 267.306 427.482 267.468 427.578 267.651 427.625 267.856 427.618 268.062 427.624 268.269 427.574 268.474 427.475 268.656 427.38 268.823 427.244 268.964 427.08 269.065 426.9 269.175 426.703 269.254 426.497 269.298 426.262 269.349 426.023 269.374 425.784 269.373 425.037 269.447 424.315 269.081 423.934 268.435L424.556 268.07C424.597 268.147 424.648 268.218 424.706 268.282 424.775 268.357 424.856 268.419 424.946 268.467 425.057 268.527 425.174 268.572 425.296 268.6 425.455 268.636 425.617 268.652 425.779 268.65 425.922 268.651 426.064 268.638 426.205 268.615 426.327 268.595 426.447 268.559 426.559 268.508 426.651 268.466 426.733 268.403 426.799 268.325 426.858 268.251 426.89 268.159 426.888 268.064 426.891 267.969 426.86 267.876 426.799 267.803 426.732 267.729 426.65 267.672 426.559 267.635 426.446 267.588 426.326 267.559 426.205 267.546 426.063 267.528 425.922 267.52 425.779 267.52 425.541 267.522 425.303 267.501 425.068 267.46 424.863 267.425 424.666 267.355 424.485 267.253 424.138 267.06 423.929 266.687 423.949 266.291 423.942 266.083 423.991 265.877 424.088 265.694 424.181 265.53 424.313 265.392 424.474 265.293 424.653 265.185 424.851 265.11 425.057 265.072 425.295 265.025 425.537 265.002 425.779 265.004 426.126 264.992 426.47 265.058 426.788 265.197 427.079 265.348 427.318 265.582 427.475 265.869L426.831 266.248C426.746 266.069 426.601 265.924 426.422 265.839 426.218 265.758 426 265.721 425.782 265.728 425.643 265.728 425.504 265.737 425.367 265.757 425.244 265.773 425.124 265.805 425.009 265.853 424.913 265.892 424.827 265.952 424.759 266.029 424.695 266.102 424.663 266.196 424.665 266.293 424.662 266.384 424.695 266.472 424.759 266.539 424.827 266.607 424.912 266.658 425.004 266.688 425.12 266.729 425.238 266.756 425.359 266.77 425.5 266.785 425.641 266.791 425.783 266.788Z" fill="#FFFFFF" transform="matrix(1.01818 0 0 1 744.217 415.256)"/></g></svg>