<svg width="168" height="45" xmlns="http://www.w3.org/2000/svg" xmlns:xlink="http://www.w3.org/1999/xlink" xml:space="preserve" overflow="hidden"><defs><clipPath id="clip0"><rect x="576" y="636" width="168" height="45"/></clipPath></defs><g clip-path="url(#clip0)" transform="translate(-576 -636)"><path d="M626.011 319.466 625.648 319.829C623.34 322.14 622.946 325.743 624.699 328.498L632.813 337.723 637.908 333.246 626.473 320.231C626.278 320.004 626.121 319.745 626.011 319.466Z" fill="#E74E00" transform="matrix(1 0 0 1.00446 105.38 335.576)"/><path d="M614.84 289.51 616.702 287.647 628.365 274.601 623.307 270.08 607.636 287.608C606.73 288.622 606.724 290.152 607.621 291.173L614.436 298.93C612.106 296.16 612.282 292.069 614.84 289.51Z" fill="#E74E00" transform="matrix(1 0 0 1.00446 115.163 364.713)"/><path d="M261.572 311.763C259.992 311.863 258.421 311.475 257.07 310.651 256.01 309.868 255.423 308.598 255.514 307.282L255.514 299.545 253.982 299.545 253.982 298.013 255.508 298.013 255.508 295.701 257.04 295.701 257.04 298.013 260.69 298.013 260.69 299.545 257.04 299.545 257.04 307.298C257.025 307.783 257.14 308.263 257.374 308.689 257.599 309.069 257.923 309.38 258.311 309.591 258.759 309.834 259.243 309.999 259.746 310.079 260.348 310.181 260.959 310.23 261.57 310.226L263.349 310.226 263.349 311.758Z" fill="#161615" transform="matrix(1 0 0 1.00446 322.492 349.594)"/><path d="M290.827 311.662 292.189 312.367C292.027 312.805 291.76 313.197 291.411 313.507 291.032 313.842 290.601 314.115 290.134 314.312 289.592 314.541 289.024 314.706 288.443 314.803 287.784 314.917 287.117 314.973 286.448 314.97 285.621 314.976 284.796 314.886 283.99 314.702 283.284 314.548 282.611 314.262 282.008 313.862 281.461 313.496 281.011 313.004 280.694 312.427 280.362 311.785 280.198 311.069 280.22 310.347L280.22 305.432C280.203 304.729 280.357 304.031 280.67 303.401 280.966 302.828 281.395 302.336 281.922 301.965 282.503 301.564 283.156 301.275 283.844 301.114 284.648 300.92 285.473 300.827 286.301 300.834 287.12 300.827 287.937 300.921 288.734 301.114 289.425 301.277 290.081 301.565 290.668 301.965 291.202 302.337 291.643 302.828 291.957 303.401 292.285 304.027 292.448 304.726 292.431 305.432L292.431 308.498 281.751 308.498 281.751 310.38C281.733 310.893 281.855 311.399 282.104 311.847 282.341 312.241 282.677 312.565 283.078 312.789 283.539 313.041 284.043 313.211 284.563 313.29 285.187 313.392 285.82 313.441 286.452 313.437 287.422 313.48 288.392 313.323 289.298 312.975 289.932 312.706 290.465 312.247 290.827 311.662ZM281.751 305.438 281.751 306.965 290.899 306.965 290.899 305.432C290.9 305.035 290.818 304.64 290.655 304.277 290.479 303.894 290.212 303.56 289.877 303.303 289.452 302.985 288.968 302.754 288.454 302.622 287.751 302.437 287.027 302.352 286.301 302.366 285.417 302.329 284.535 302.457 283.698 302.743 283.184 302.926 282.72 303.231 282.348 303.632 282.089 303.921 281.912 304.274 281.837 304.654 281.788 304.911 281.76 305.172 281.751 305.434Z" fill="#161615" transform="matrix(1 0 0 1.00446 307.081 346.568)"/><path d="M317.483 305.409C317.462 304.688 317.621 303.973 317.946 303.329 318.248 302.76 318.681 302.272 319.21 301.905 319.789 301.514 320.437 301.237 321.121 301.09 321.908 300.915 322.711 300.829 323.517 300.835 324.648 300.816 325.774 301.005 326.838 301.39 327.819 301.769 328.634 302.485 329.137 303.409L327.75 304.09C327.406 303.416 326.798 302.914 326.071 302.703 325.241 302.464 324.379 302.348 323.515 302.362 322.911 302.358 322.309 302.407 321.714 302.508 321.213 302.588 320.731 302.757 320.291 303.01 319.902 303.237 319.579 303.561 319.354 303.951 319.114 304.393 318.996 304.892 319.012 305.396L319.012 310.381C318.991 310.907 319.131 311.427 319.414 311.872 319.683 312.264 320.042 312.586 320.46 312.813 320.91 313.057 321.399 313.222 321.904 313.302 322.436 313.391 322.972 313.436 323.51 313.436 324.366 313.452 325.22 313.337 326.041 313.094 326.762 312.861 327.369 312.366 327.743 311.708L329.077 312.438C328.598 313.337 327.808 314.032 326.854 314.392 325.785 314.791 324.651 314.986 323.509 314.967 322.693 314.974 321.881 314.88 321.089 314.687 320.406 314.526 319.758 314.241 319.178 313.848 318.648 313.48 318.218 312.987 317.926 312.412 317.613 311.776 317.459 311.076 317.475 310.368Z" fill="#161615" transform="matrix(1 0 0 1.00446 285.192 346.568)"/><path d="M352.802 305.375C352.783 304.66 352.935 303.95 353.246 303.306 353.541 302.73 353.976 302.235 354.511 301.87 355.104 301.477 355.763 301.197 356.457 301.044 357.268 300.859 358.095 300.769 358.927 300.776 359.754 300.768 360.578 300.858 361.384 301.044 362.074 301.198 362.73 301.478 363.318 301.87 363.855 302.237 364.294 302.731 364.596 303.306 364.917 303.948 365.076 304.658 365.058 305.375L365.058 314.745 363.535 314.745 363.535 305.36C363.551 304.858 363.429 304.36 363.181 303.922 362.946 303.532 362.613 303.21 362.218 302.984 361.762 302.731 361.267 302.557 360.754 302.472 360.15 302.363 359.538 302.309 358.925 302.313 358.296 302.308 357.667 302.362 357.046 302.472 356.536 302.556 356.045 302.73 355.595 302.984 355.208 303.209 354.888 303.532 354.668 303.922 354.435 304.364 354.32 304.86 354.335 305.36L354.335 314.745 352.802 314.745Z" fill="#161615" transform="matrix(1 0 0 1.00446 264.447 346.602)"/><path d="M390.772 310.347 390.772 305.409C390.695 304.083 391.284 302.805 392.342 302.003 393.683 301.141 395.265 300.732 396.855 300.835 398.45 300.736 400.036 301.136 401.393 301.978 402.474 302.776 403.076 304.069 402.989 305.409L402.989 310.348C403.079 311.698 402.479 313.003 401.396 313.815 400.041 314.666 398.454 315.069 396.858 314.97 395.269 315.073 393.689 314.668 392.345 313.815 391.273 312.995 390.682 311.693 390.772 310.347ZM401.453 310.365 401.453 305.416C401.446 305.146 401.422 304.877 401.38 304.61 401.313 304.232 401.139 303.881 400.881 303.599 400.503 303.204 400.036 302.907 399.518 302.733 398.658 302.454 397.754 302.329 396.851 302.367 395.96 302.331 395.07 302.454 394.223 302.733 393.71 302.908 393.248 303.206 392.873 303.599 392.614 303.881 392.441 304.232 392.374 304.61 392.332 304.877 392.307 305.146 392.301 305.416L392.301 310.365C392.308 310.626 392.333 310.885 392.374 311.143 392.442 311.524 392.614 311.878 392.873 312.166 393.244 312.568 393.708 312.873 394.223 313.055 395.068 313.343 395.959 313.471 396.851 313.433 397.755 313.472 398.66 313.343 399.518 313.055 400.038 312.874 400.506 312.569 400.881 312.166 401.139 311.878 401.312 311.524 401.38 311.143 401.421 310.885 401.445 310.626 401.453 310.365Z" fill="#161615" transform="matrix(1 0 0 1.00446 242.144 346.568)"/><path d="M428.626 305.409C428.605 304.688 428.764 303.973 429.089 303.329 429.391 302.76 429.824 302.272 430.353 301.905 430.932 301.514 431.58 301.237 432.264 301.09 433.051 300.915 433.854 300.829 434.66 300.835 435.791 300.816 436.917 301.005 437.982 301.39 438.962 301.77 439.777 302.485 440.28 303.409L438.893 304.09C438.549 303.416 437.942 302.915 437.215 302.703 436.385 302.464 435.524 302.348 434.659 302.362 434.055 302.358 433.453 302.407 432.858 302.508 432.357 302.588 431.875 302.757 431.435 303.01 431.046 303.237 430.723 303.561 430.498 303.951 430.258 304.393 430.14 304.892 430.157 305.396L430.157 310.381C430.136 310.907 430.276 311.427 430.558 311.872 430.827 312.264 431.186 312.588 431.605 312.813 432.055 313.057 432.544 313.222 433.05 313.302 433.58 313.391 434.118 313.436 434.656 313.436 435.511 313.452 436.365 313.337 437.186 313.094 437.908 312.862 438.515 312.367 438.89 311.708L440.224 312.438C439.743 313.337 438.954 314.031 438.001 314.392 436.932 314.791 435.797 314.986 434.656 314.967 433.84 314.974 433.027 314.88 432.235 314.687 431.553 314.526 430.905 314.241 430.325 313.848 429.794 313.48 429.364 312.987 429.072 312.412 428.76 311.776 428.605 311.076 428.622 310.368Z" fill="#161615" transform="matrix(1 0 0 1.00446 219.909 346.568)"/><path d="M463.945 310.347 463.945 305.409C463.867 304.083 464.456 302.805 465.514 302.003 466.856 301.141 468.437 300.732 470.028 300.835 471.621 300.737 473.206 301.136 474.562 301.978 475.642 302.776 476.243 304.069 476.156 305.409L476.156 310.348C476.245 311.698 475.646 313.003 474.562 313.815 473.208 314.666 471.62 315.07 470.024 314.97 468.435 315.073 466.855 314.668 465.511 313.815 464.442 312.993 463.854 311.692 463.945 310.347ZM474.626 310.365 474.626 305.416C474.619 305.146 474.594 304.877 474.552 304.61 474.485 304.232 474.313 303.881 474.054 303.599 473.676 303.204 473.21 302.907 472.692 302.733 471.831 302.454 470.928 302.329 470.024 302.367 469.134 302.331 468.244 302.454 467.397 302.733 466.884 302.908 466.421 303.206 466.047 303.599 465.787 303.881 465.614 304.232 465.548 304.61 465.505 304.877 465.481 305.146 465.474 305.416L465.474 310.365C465.482 310.626 465.507 310.885 465.548 311.143 465.616 311.524 465.788 311.878 466.047 312.166 466.419 312.568 466.881 312.872 467.397 313.055 468.242 313.343 469.133 313.471 470.024 313.433 470.929 313.472 471.834 313.343 472.692 313.055 473.212 312.874 473.68 312.569 474.054 312.166 474.312 311.878 474.484 311.524 474.552 311.143 474.593 310.885 474.618 310.626 474.626 310.365Z" fill="#161615" transform="matrix(1 0 0 1.00446 199.163 346.568)"/><path d="M521.603 305.434 521.603 314.776 520.07 314.776 520.07 305.409C520.15 304.514 519.773 303.64 519.07 303.082 518.232 302.555 517.252 302.304 516.264 302.363 515.742 302.358 515.222 302.412 514.713 302.522 514.285 302.612 513.879 302.785 513.517 303.033 513.182 303.273 512.913 303.596 512.739 303.971 512.539 304.423 512.444 304.915 512.458 305.409L512.458 314.77 510.926 314.77 510.926 305.409C511.01 304.512 510.639 303.633 509.936 303.07 509.093 302.548 508.108 302.302 507.118 302.363 506.598 302.358 506.079 302.407 505.569 302.509 505.143 302.591 504.74 302.762 504.385 303.01 504.054 303.252 503.789 303.575 503.616 303.948 503.415 304.408 503.318 304.908 503.335 305.41L503.335 314.771 501.802 314.771 501.802 305.429C501.783 304.71 501.924 303.995 502.215 303.336 502.472 302.775 502.859 302.283 503.345 301.9 503.846 301.517 504.421 301.239 505.033 301.086 505.717 300.911 506.419 300.826 507.124 300.83 508.02 300.818 508.913 300.961 509.76 301.256 510.534 301.531 511.208 302.035 511.691 302.701 512.164 302.063 512.805 301.57 513.543 301.277 514.415 300.956 515.341 300.802 516.271 300.827 516.986 300.821 517.698 300.911 518.39 301.095 519.003 301.256 519.579 301.537 520.082 301.922 520.567 302.302 520.951 302.795 521.203 303.357 521.485 304.012 521.622 304.721 521.603 305.434Z" fill="#161615" transform="matrix(1 0 0 1.00446 176.929 346.568)"/><path d="M558.047 319.079 558.047 305.458C558.027 304.727 558.186 304.002 558.51 303.346 558.813 302.767 559.256 302.274 559.799 301.91 560.388 301.523 561.044 301.246 561.733 301.096 562.52 300.92 563.323 300.835 564.129 300.84 564.968 300.832 565.806 300.927 566.623 301.12 567.317 301.28 567.974 301.574 568.557 301.984 569.081 302.361 569.51 302.856 569.809 303.429 570.121 304.059 570.276 304.757 570.259 305.46L570.259 310.35C570.278 311.074 570.124 311.792 569.808 312.443 569.512 313.021 569.077 313.514 568.54 313.879 567.946 314.272 567.285 314.554 566.589 314.706 565.777 314.89 564.947 314.98 564.114 314.974 562.508 315.087 560.91 314.656 559.579 313.751L559.579 319.086ZM559.58 305.419 559.58 310.38C559.588 310.65 559.615 310.92 559.665 311.186 559.741 311.564 559.918 311.915 560.178 312.2 560.549 312.592 561.009 312.89 561.519 313.068 562.356 313.347 563.236 313.471 564.118 313.434 564.727 313.438 565.335 313.389 565.935 313.288 566.446 313.207 566.941 313.041 567.398 312.799 567.801 312.582 568.139 312.261 568.374 311.87 568.624 311.423 568.747 310.916 568.729 310.404L568.729 305.442C568.743 304.948 568.625 304.459 568.388 304.025 568.16 303.634 567.836 303.306 567.449 303.073 567.001 302.81 566.508 302.627 565.997 302.535 565.378 302.416 564.749 302.359 564.119 302.364 563.498 302.358 562.876 302.412 562.265 302.523 561.764 302.611 561.28 302.784 560.838 303.036 560.45 303.262 560.13 303.586 559.911 303.978 559.679 304.423 559.565 304.92 559.583 305.422Z" fill="#161615" transform="matrix(1 0 0 1.00446 143.889 346.568)"/><path d="M322.601 356.815 322.601 357.797 320.524 357.797 320.524 363.856 319.534 363.856 319.534 357.797 317.484 357.797 317.484 356.815Z" fill="#E74E00" transform="matrix(1 0 0 1.00446 285.192 313.541)"/><path d="M334.784 364.098 335.673 364.623C335.422 364.967 335.079 365.233 334.683 365.39 334.247 365.573 333.778 365.665 333.305 365.662 332.985 365.663 332.667 365.623 332.358 365.541 332.073 365.467 331.803 365.344 331.561 365.176 331.072 364.837 330.79 364.275 330.809 363.68L330.809 361.71C330.802 361.417 330.87 361.13 331.003 360.87 331.131 360.628 331.313 360.419 331.533 360.258 331.772 360.086 332.041 359.958 332.326 359.884 332.646 359.798 332.977 359.756 333.308 359.758 333.636 359.755 333.963 359.791 334.282 359.869 334.567 359.938 334.837 360.058 335.08 360.224 335.305 360.38 335.49 360.588 335.62 360.831 335.759 361.101 335.828 361.402 335.82 361.705L335.82 363.191 331.793 363.191 331.793 363.696C331.791 363.844 331.833 363.989 331.915 364.114 331.999 364.24 332.11 364.346 332.24 364.425 332.388 364.513 332.548 364.577 332.716 364.614 332.907 364.657 333.103 364.678 333.298 364.677 333.583 364.678 333.865 364.629 334.133 364.532 334.384 364.445 334.607 364.296 334.784 364.098ZM331.793 361.71 331.793 362.214 334.823 362.214 334.823 361.71C334.826 361.559 334.784 361.41 334.702 361.282 334.616 361.155 334.502 361.051 334.368 360.976 334.217 360.891 334.053 360.829 333.883 360.796 333.689 360.757 333.493 360.737 333.296 360.738 333.098 360.737 332.901 360.758 332.708 360.802 332.539 360.837 332.377 360.902 332.228 360.991 332.1 361.067 331.99 361.172 331.908 361.296 331.83 361.42 331.79 361.564 331.793 361.71Z" fill="#E74E00" transform="matrix(1 0 0 1.00446 277.368 311.804)"/><path d="M346.454 361.675C346.446 361.375 346.518 361.08 346.663 360.816 346.8 360.575 346.991 360.368 347.218 360.209 347.462 360.043 347.733 359.922 348.02 359.85 348.325 359.771 348.641 359.733 348.957 359.734 349.199 359.734 349.441 359.757 349.68 359.801 349.921 359.846 350.155 359.923 350.375 360.029 350.597 360.138 350.8 360.283 350.976 360.456 351.167 360.648 351.323 360.875 351.433 361.123L350.544 361.531C350.482 361.387 350.391 361.257 350.277 361.152 350.164 361.048 350.033 360.963 349.893 360.9 349.748 360.834 349.595 360.786 349.437 360.758 349.28 360.729 349.121 360.715 348.961 360.714 348.763 360.713 348.566 360.734 348.373 360.777 348.204 360.814 348.042 360.877 347.893 360.966 347.765 361.043 347.654 361.146 347.567 361.267 347.485 361.387 347.443 361.53 347.446 361.675L347.446 363.696C347.441 363.86 347.492 364.021 347.592 364.151 347.692 364.277 347.817 364.379 347.961 364.453 348.115 364.532 348.281 364.587 348.452 364.617 348.62 364.649 348.79 364.665 348.961 364.666 349.274 364.666 349.585 364.605 349.875 364.486 350.171 364.367 350.419 364.149 350.574 363.869L351.447 364.268C351.323 364.51 351.162 364.733 350.967 364.924 350.789 365.097 350.587 365.242 350.365 365.352 350.148 365.458 349.918 365.536 349.68 365.581 349.443 365.625 349.202 365.648 348.961 365.648 348.63 365.651 348.3 365.608 347.98 365.522 347.694 365.446 347.424 365.319 347.184 365.148 346.962 364.988 346.779 364.779 346.65 364.537 346.517 364.277 346.45 363.989 346.456 363.697Z" fill="#E74E00" transform="matrix(1 0 0 1.00446 268.176 311.818)"/><path d="M365.884 361.7C365.887 361.539 365.835 361.381 365.734 361.255 365.63 361.13 365.501 361.027 365.355 360.954 365.197 360.874 365.029 360.818 364.855 360.788 364.688 360.757 364.519 360.741 364.35 360.739 364.179 360.741 364.008 360.757 363.84 360.788 363.669 360.818 363.503 360.874 363.349 360.954 363.206 361.027 363.08 361.13 362.98 361.255 362.882 361.382 362.83 361.54 362.834 361.7L362.834 365.584 361.844 365.584 361.844 361.7C361.839 361.411 361.905 361.126 362.039 360.87 362.168 360.627 362.351 360.418 362.573 360.258 362.814 360.086 363.085 359.959 363.371 359.884 363.691 359.798 364.023 359.756 364.354 359.758 364.692 359.756 365.028 359.799 365.354 359.889 365.641 359.967 365.911 360.095 366.152 360.268 366.372 360.428 366.553 360.636 366.682 360.875 366.815 361.13 366.882 361.414 366.877 361.701L366.877 365.585 365.886 365.585Z" fill="#E74E00" transform="matrix(1 0 0 1.00446 259.136 311.804)"/><path d="M377.776 363.681 377.776 361.711C377.77 361.419 377.837 361.131 377.97 360.871 378.098 360.629 378.281 360.421 378.501 360.259 378.74 360.087 379.008 359.959 379.293 359.885 379.613 359.799 379.944 359.757 380.275 359.759 380.609 359.757 380.94 359.799 381.262 359.885 381.549 359.959 381.82 360.086 382.06 360.259 382.28 360.421 382.462 360.629 382.59 360.871 382.724 361.131 382.79 361.419 382.785 361.711L382.785 363.681C382.79 363.975 382.724 364.265 382.59 364.526 382.463 364.77 382.281 364.983 382.06 365.148 381.82 365.325 381.55 365.455 381.262 365.532 380.941 365.621 380.609 365.665 380.275 365.663 379.943 365.665 379.613 365.622 379.293 365.532 379.007 365.454 378.738 365.324 378.501 365.148 378.279 364.983 378.098 364.77 377.97 364.526 377.837 364.265 377.77 363.975 377.776 363.681ZM378.766 363.681C378.763 363.832 378.805 363.981 378.887 364.109 378.973 364.237 379.087 364.343 379.221 364.419 379.37 364.508 379.532 364.574 379.701 364.614 379.889 364.66 380.081 364.683 380.274 364.682 380.469 364.683 380.663 364.659 380.852 364.614 381.023 364.574 381.187 364.508 381.338 364.419 381.47 364.341 381.584 364.235 381.671 364.109 381.756 363.982 381.8 363.834 381.797 363.681L381.797 361.711C381.799 361.563 381.756 361.419 381.671 361.297 381.582 361.173 381.469 361.07 381.338 360.992 381.187 360.903 381.023 360.839 380.852 360.803 380.662 360.759 380.469 360.738 380.274 360.739 380.081 360.738 379.889 360.759 379.701 360.803 379.532 360.839 379.37 360.904 379.221 360.992 379.088 361.067 378.974 361.172 378.887 361.297 378.806 361.42 378.764 361.564 378.766 361.711Z" fill="#E74E00" transform="matrix(1 0 0 1.00446 249.778 311.804)"/><path d="M393.662 356.792 394.652 356.792 394.652 363.841 393.662 363.841Z" fill="#E74E00" transform="matrix(1 0 0 1.00446 240.447 313.554)"/><path d="M399.828 363.681 399.828 361.711C399.823 361.419 399.889 361.131 400.023 360.871 400.151 360.629 400.333 360.421 400.553 360.259 400.792 360.087 401.061 359.959 401.345 359.885 401.665 359.799 401.996 359.757 402.328 359.759 402.661 359.757 402.992 359.799 403.314 359.885 403.601 359.959 403.872 360.086 404.112 360.259 404.332 360.421 404.514 360.629 404.643 360.871 404.776 361.131 404.843 361.419 404.837 361.711L404.837 363.681C404.843 363.975 404.776 364.265 404.643 364.526 404.515 364.77 404.334 364.983 404.112 365.148 403.872 365.325 403.602 365.455 403.314 365.532 402.993 365.621 402.661 365.665 402.328 365.663 401.995 365.665 401.665 365.622 401.345 365.532 401.059 365.454 400.791 365.324 400.553 365.148 400.332 364.983 400.15 364.77 400.023 364.526 399.889 364.265 399.823 363.975 399.828 363.681ZM400.818 363.681C400.815 363.832 400.857 363.981 400.939 364.109 401.025 364.237 401.139 364.343 401.273 364.419 401.422 364.508 401.584 364.574 401.753 364.614 401.941 364.66 402.133 364.683 402.326 364.682 402.521 364.683 402.715 364.659 402.904 364.614 403.076 364.574 403.239 364.508 403.39 364.419 403.522 364.341 403.636 364.235 403.723 364.109 403.808 363.982 403.852 363.834 403.849 363.681L403.849 361.711C403.851 361.563 403.808 361.419 403.723 361.297 403.635 361.173 403.521 361.07 403.39 360.992 403.239 360.903 403.076 360.839 402.904 360.803 402.714 360.759 402.521 360.738 402.326 360.739 402.133 360.738 401.941 360.759 401.753 360.803 401.584 360.839 401.422 360.904 401.273 360.992 401.141 361.067 401.026 361.172 400.939 361.297 400.858 361.42 400.816 361.564 400.818 361.711Z" fill="#E74E00" transform="matrix(1 0 0 1.00446 236.824 311.804)"/><path d="M420.714 361.685 420.714 365.676C420.723 365.97 420.658 366.26 420.524 366.521 420.399 366.753 420.218 366.951 419.999 367.099 419.755 367.259 419.485 367.371 419.201 367.432 418.873 367.508 418.537 367.544 418.2 367.543 417.971 367.543 417.742 367.529 417.515 367.499 417.294 367.47 417.077 367.417 416.868 367.339 416.431 367.177 416.053 366.89 415.779 366.513L416.557 365.94C416.638 366.053 416.742 366.149 416.862 366.221 416.99 366.3 417.128 366.363 417.27 366.41 417.419 366.459 417.572 366.496 417.727 366.521 417.883 366.546 418.039 366.56 418.197 366.56 418.397 366.561 418.597 366.545 418.795 366.512 418.964 366.484 419.127 366.432 419.281 366.356 419.411 366.293 419.523 366.198 419.606 366.08 419.684 365.96 419.723 365.819 419.717 365.676L419.717 365.278C419.496 365.382 419.267 365.466 419.033 365.531 418.759 365.61 418.477 365.648 418.193 365.647 417.873 365.648 417.555 365.608 417.246 365.526 416.962 365.453 416.694 365.329 416.454 365.162 416.23 365.002 416.043 364.793 415.911 364.55 415.771 364.285 415.701 363.987 415.708 363.686L415.708 361.685C415.701 361.39 415.768 361.098 415.902 360.835 416.031 360.594 416.212 360.385 416.432 360.224 416.669 360.053 416.937 359.927 417.22 359.855 417.539 359.771 417.868 359.731 418.198 359.734 418.522 359.731 418.843 359.771 419.156 359.85 419.442 359.92 419.712 360.043 419.954 360.209 420.181 360.367 420.369 360.575 420.504 360.816 420.649 361.083 420.721 361.382 420.714 361.685ZM419.724 361.685C419.727 361.53 419.682 361.376 419.593 361.249 419.503 361.123 419.385 361.02 419.248 360.947 419.096 360.866 418.932 360.807 418.763 360.773 418.577 360.733 418.388 360.714 418.199 360.714 418.005 360.713 417.811 360.734 417.621 360.777 417.45 360.814 417.287 360.877 417.136 360.966 417.003 361.043 416.889 361.147 416.802 361.273 416.721 361.395 416.679 361.539 416.681 361.685L416.681 363.686C416.679 363.834 416.721 363.979 416.802 364.104 416.887 364.23 416.998 364.336 417.128 364.415 417.277 364.504 417.439 364.568 417.609 364.604 417.801 364.647 417.998 364.668 418.196 364.667 418.397 364.668 418.597 364.647 418.794 364.604 418.963 364.567 419.125 364.504 419.274 364.415 419.404 364.336 419.515 364.23 419.6 364.104 419.681 363.979 419.723 363.834 419.721 363.686Z" fill="#E74E00" transform="matrix(1 0 0 1.00446 227.493 311.818)"/><path d="M431.574 356.815 432.574 356.815 432.574 357.582 431.574 357.582ZM432.574 363.856 431.584 363.856 431.584 358.137 432.574 358.137Z" fill="#E74E00" transform="matrix(1 0 0 1.00446 218.178 313.541)"/><path d="M439.935 359.756C440.257 359.753 440.578 359.79 440.89 359.867 441.173 359.936 441.441 360.056 441.681 360.222 441.903 360.377 442.087 360.582 442.22 360.82 442.36 361.082 442.429 361.376 442.421 361.674L442.421 363.656C442.429 363.965 442.368 364.271 442.241 364.554 442.124 364.799 441.949 365.013 441.73 365.175 441.493 365.348 441.223 365.472 440.937 365.54 440.604 365.621 440.263 365.66 439.92 365.656 439.589 365.657 439.26 365.62 438.938 365.545 438.653 365.483 438.383 365.371 438.14 365.212 437.918 365.066 437.734 364.868 437.604 364.636 437.469 364.38 437.402 364.094 437.41 363.804 437.406 363.576 437.454 363.35 437.551 363.145 437.642 362.953 437.775 362.786 437.939 362.651 438.115 362.509 438.319 362.402 438.535 362.337 438.788 362.26 439.05 362.222 439.313 362.225L441.425 362.225 441.425 361.677C441.429 361.533 441.391 361.39 441.314 361.267 441.232 361.146 441.122 361.045 440.994 360.974 440.845 360.892 440.685 360.831 440.518 360.794 440.327 360.751 440.131 360.729 439.936 360.731 439.393 360.683 438.866 360.917 438.538 361.352L437.683 360.847C437.896 360.484 438.214 360.195 438.597 360.017 439.018 359.834 439.475 359.744 439.935 359.756ZM441.429 363.659 441.429 363.215 439.318 363.215C439.163 363.21 439.01 363.232 438.863 363.282 438.761 363.319 438.667 363.373 438.582 363.442 438.519 363.495 438.469 363.561 438.437 363.637 438.414 363.691 438.401 363.748 438.398 363.807 438.393 363.949 438.437 364.089 438.519 364.205 438.607 364.32 438.721 364.414 438.852 364.477 439.004 364.553 439.168 364.606 439.337 364.633 439.53 364.666 439.726 364.683 439.922 364.682 440.205 364.693 440.487 364.653 440.755 364.56 440.924 364.499 441.078 364.401 441.205 364.274 441.296 364.18 441.361 364.066 441.394 363.94 441.416 363.849 441.427 363.756 441.429 363.661Z" fill="#E74E00" transform="matrix(1 0 0 1.00446 214.749 311.804)"/><path d="M463.866 364.098 464.755 364.623C464.504 364.967 464.161 365.233 463.765 365.39 463.328 365.573 462.859 365.665 462.386 365.662 462.066 365.663 461.748 365.623 461.439 365.541 461.154 365.467 460.884 365.344 460.642 365.176 460.153 364.838 459.87 364.275 459.89 363.68L459.89 361.71C459.884 361.417 459.951 361.13 460.084 360.87 460.213 360.628 460.394 360.419 460.614 360.258 460.853 360.086 461.122 359.958 461.407 359.884 461.727 359.798 462.058 359.756 462.389 359.758 462.717 359.755 463.044 359.791 463.362 359.869 463.647 359.938 463.917 360.058 464.16 360.224 464.385 360.38 464.57 360.588 464.7 360.831 464.839 361.101 464.906 361.402 464.899 361.705L464.899 363.191 460.879 363.191 460.879 363.696C460.877 363.844 460.919 363.989 461 364.114 461.084 364.24 461.195 364.346 461.326 364.425 461.473 364.513 461.633 364.577 461.801 364.614 461.992 364.657 462.188 364.678 462.384 364.677 462.668 364.678 462.952 364.629 463.219 364.532 463.468 364.445 463.691 364.295 463.866 364.098ZM460.875 361.71 460.875 362.214 463.905 362.214 463.905 361.71C463.908 361.559 463.866 361.41 463.784 361.282 463.698 361.155 463.584 361.051 463.451 360.976 463.299 360.891 463.135 360.829 462.965 360.796 462.771 360.757 462.575 360.737 462.377 360.738 462.179 360.737 461.982 360.758 461.79 360.802 461.62 360.837 461.458 360.902 461.309 360.991 461.181 361.067 461.071 361.172 460.989 361.296 460.911 361.42 460.872 361.564 460.875 361.71Z" fill="#E74E00" transform="matrix(1 0 0 1.00446 201.548 311.804)"/><path d="M485.508 361.773C485.533 361.461 485.403 361.155 485.159 360.957 484.825 360.749 484.441 360.632 484.048 360.617 483.728 360.589 483.412 360.526 483.106 360.428 482.841 360.345 482.592 360.213 482.373 360.04 482.172 359.878 482.008 359.671 481.897 359.438 481.778 359.178 481.721 358.893 481.727 358.608 481.683 358.034 481.922 357.475 482.367 357.112 482.871 356.765 483.475 356.594 484.087 356.626 484.318 356.626 484.549 356.65 484.777 356.694 485.254 356.784 485.686 357.031 486.005 357.396 486.191 357.613 486.333 357.863 486.427 358.132L485.538 358.54C485.443 358.243 485.243 357.99 484.977 357.827 484.709 357.675 484.405 357.599 484.097 357.604 483.744 357.584 483.394 357.664 483.085 357.833 482.723 358.122 482.617 358.628 482.833 359.038 482.909 359.164 483.013 359.269 483.138 359.346 483.275 359.43 483.425 359.495 483.582 359.536 483.76 359.584 483.941 359.616 484.125 359.634 484.525 359.663 484.918 359.75 485.291 359.896 485.566 360.004 485.815 360.168 486.023 360.377 486.198 360.558 486.326 360.781 486.396 361.023 486.465 361.266 486.498 361.517 486.498 361.771 486.505 362.075 486.447 362.379 486.328 362.66 486.22 362.909 486.054 363.129 485.843 363.3 485.617 363.48 485.358 363.612 485.08 363.689 484.758 363.78 484.425 363.824 484.09 363.82 483.854 363.82 483.619 363.797 483.387 363.752 483.151 363.707 482.923 363.627 482.712 363.515 482.492 363.397 482.291 363.247 482.115 363.07 481.92 362.87 481.763 362.634 481.654 362.377L482.509 361.91C482.632 362.207 482.851 362.453 483.13 362.613 483.425 362.771 483.757 362.85 484.091 362.842 484.451 362.859 484.808 362.773 485.12 362.594 485.388 362.411 485.537 362.096 485.508 361.773Z" fill="#E74E00" transform="matrix(1 0 0 1.00446 188.761 313.651)"/><path d="M500.436 364.098 501.325 364.623C501.074 364.967 500.731 365.233 500.335 365.39 499.898 365.573 499.429 365.665 498.956 365.662 498.636 365.663 498.318 365.623 498.009 365.541 497.725 365.467 497.456 365.344 497.213 365.176 496.724 364.837 496.442 364.275 496.461 363.68L496.461 361.71C496.455 361.417 496.522 361.13 496.655 360.87 496.784 360.628 496.965 360.419 497.186 360.258 497.424 360.086 497.693 359.958 497.979 359.884 498.299 359.798 498.63 359.756 498.962 359.758 499.289 359.755 499.616 359.791 499.935 359.869 500.221 359.938 500.491 360.058 500.733 360.224 500.959 360.38 501.143 360.588 501.273 360.831 501.412 361.101 501.481 361.402 501.473 361.705L501.473 363.191 497.446 363.191 497.446 363.696C497.443 363.844 497.486 363.989 497.567 364.114 497.651 364.24 497.762 364.346 497.892 364.425 498.039 364.514 498.2 364.577 498.368 364.614 498.559 364.657 498.755 364.678 498.95 364.677 499.237 364.679 499.522 364.632 499.791 364.535 500.04 364.447 500.262 364.296 500.436 364.098ZM497.446 361.71 497.446 362.214 500.475 362.214 500.475 361.71C500.479 361.559 500.436 361.41 500.354 361.282 500.269 361.155 500.154 361.051 500.021 360.976 499.87 360.891 499.705 360.829 499.535 360.796 499.342 360.757 499.145 360.737 498.947 360.738 498.749 360.737 498.553 360.758 498.359 360.802 498.19 360.837 498.028 360.902 497.879 360.991 497.751 361.067 497.641 361.172 497.559 361.296 497.481 361.42 497.442 361.564 497.446 361.71Z" fill="#E74E00" transform="matrix(1 0 0 1.00446 180.067 311.804)"/><path d="M512.106 361.807C512.078 361.258 512.315 360.731 512.742 360.385 513.253 360.018 513.875 359.838 514.504 359.875L515.816 359.875 515.816 360.856 514.504 360.856C514.145 360.838 513.79 360.926 513.48 361.108 513.236 361.256 513.089 361.523 513.096 361.807L513.096 365.653 512.106 365.653Z" fill="#E74E00" transform="matrix(1 0 0 1.00446 170.875 311.735)"/><path d="M525.672 365.708 524.885 365.708 522.505 359.97 523.573 359.97 525.281 364.127 527.001 359.97 528.05 359.97Z" fill="#E74E00" transform="matrix(1 0 0 1.00446 164.766 311.68)"/><path d="M538.297 356.815 539.297 356.815 539.297 357.582 538.297 357.582ZM539.297 363.856 538.307 363.856 538.307 358.137 539.297 358.137Z" fill="#E74E00" transform="matrix(1 0 0 1.00446 155.49 313.541)"/><path d="M546.623 365.967 546.623 365.627C546.334 365.605 546.05 365.543 545.779 365.443 545.532 365.353 545.304 365.219 545.104 365.049 544.915 364.886 544.762 364.686 544.653 364.461 544.539 364.223 544.483 363.959 544.487 363.695L544.487 361.674C544.479 361.374 544.552 361.078 544.696 360.815 544.834 360.574 545.024 360.366 545.252 360.208 545.495 360.042 545.766 359.92 546.053 359.849 546.359 359.77 546.674 359.731 546.99 359.733 547.232 359.733 547.475 359.756 547.714 359.8 547.955 359.845 548.188 359.922 548.408 360.028 548.63 360.137 548.834 360.282 549.01 360.455 549.201 360.647 549.355 360.874 549.466 361.122L548.577 361.53C548.516 361.386 548.425 361.256 548.309 361.151 548.196 361.047 548.066 360.962 547.926 360.898 547.78 360.833 547.627 360.785 547.469 360.757 547.117 360.693 546.756 360.699 546.406 360.776 546.237 360.813 546.074 360.876 545.925 360.965 545.798 361.042 545.686 361.144 545.6 361.266 545.518 361.386 545.475 361.529 545.479 361.674L545.479 363.695C545.473 363.859 545.525 364.019 545.624 364.15 545.724 364.276 545.85 364.378 545.993 364.452 546.148 364.53 546.312 364.586 546.483 364.616 546.651 364.648 546.822 364.664 546.993 364.665 547.307 364.665 547.616 364.604 547.906 364.485 548.203 364.366 548.451 364.148 548.605 363.868L549.479 364.267C549.292 364.645 549.006 364.965 548.653 365.194 548.329 365.395 547.97 365.533 547.595 365.597L547.595 365.966C547.602 366.192 547.565 366.416 547.484 366.626 547.414 366.795 547.296 366.941 547.143 367.044 546.973 367.157 546.781 367.232 546.58 367.267 546.326 367.311 546.067 367.332 545.808 367.33L545.808 366.349C546.005 366.353 546.203 366.332 546.396 366.285 546.541 366.252 546.639 366.115 546.623 365.967Z" fill="#E74E00" transform="matrix(1 0 0 1.00446 151.855 311.818)"/><path d="M559.878 363.681 559.878 361.711C559.871 361.419 559.938 361.13 560.072 360.871 560.201 360.629 560.382 360.421 560.602 360.259 560.841 360.087 561.11 359.959 561.395 359.885 561.715 359.799 562.046 359.757 562.377 359.759 562.711 359.757 563.043 359.799 563.365 359.885 563.652 359.959 563.923 360.086 564.163 360.259 564.384 360.421 564.566 360.629 564.693 360.871 564.827 361.131 564.893 361.419 564.888 361.711L564.888 363.681C564.893 363.975 564.827 364.265 564.693 364.526 564.566 364.77 564.384 364.983 564.163 365.148 563.923 365.325 563.653 365.455 563.365 365.532 563.044 365.621 562.711 365.665 562.377 365.663 562.045 365.665 561.715 365.622 561.395 365.532 561.109 365.454 560.84 365.324 560.602 365.148 560.381 364.983 560.2 364.77 560.072 364.526 559.939 364.265 559.872 363.975 559.878 363.681ZM560.868 363.681C560.865 363.832 560.907 363.981 560.989 364.109 561.076 364.237 561.189 364.343 561.323 364.419 561.473 364.508 561.635 364.574 561.804 364.614 561.992 364.66 562.183 364.683 562.376 364.682 562.571 364.683 562.765 364.659 562.954 364.614 563.125 364.574 563.289 364.508 563.44 364.419 563.572 364.341 563.685 364.236 563.773 364.109 563.859 363.984 563.903 363.834 563.9 363.681L563.9 361.711C563.902 361.563 563.858 361.419 563.773 361.297 563.684 361.173 563.571 361.07 563.44 360.992 563.289 360.903 563.125 360.839 562.954 360.803 562.764 360.759 562.571 360.738 562.376 360.739 562.184 360.738 561.992 360.759 561.804 360.803 561.635 360.839 561.471 360.904 561.323 360.992 561.19 361.067 561.076 361.172 560.989 361.297 560.907 361.42 560.865 361.564 560.868 361.711Z" fill="#E74E00" transform="matrix(1 0 0 1.00446 142.815 311.804)"/><path d="M578.032 362.185C578.366 362.183 578.698 362.214 579.025 362.278 579.305 362.33 579.573 362.43 579.818 362.574 580.036 362.703 580.215 362.888 580.34 363.108 580.47 363.357 580.533 363.635 580.524 363.915 580.532 364.196 580.464 364.474 580.329 364.72 580.201 364.947 580.016 365.138 579.794 365.276 579.549 365.425 579.281 365.533 579.001 365.592 578.684 365.662 578.359 365.696 578.033 365.694 577.02 365.795 576.04 365.298 575.523 364.422L576.367 363.926C576.423 364.029 576.492 364.126 576.571 364.213 576.664 364.315 576.774 364.399 576.896 364.465 577.046 364.546 577.206 364.607 577.372 364.645 577.588 364.694 577.808 364.716 578.028 364.713 578.221 364.714 578.415 364.697 578.606 364.665 578.771 364.638 578.934 364.589 579.086 364.519 579.211 364.463 579.323 364.377 579.411 364.271 579.493 364.171 579.536 364.046 579.533 363.917 579.537 363.788 579.495 363.661 579.411 363.562 579.321 363.462 579.21 363.385 579.086 363.335 578.932 363.271 578.77 363.231 578.606 363.213 578.413 363.19 578.221 363.179 578.028 363.179 577.704 363.181 577.381 363.153 577.062 363.097 576.784 363.05 576.516 362.954 576.271 362.816 575.799 362.554 575.516 362.048 575.543 361.51 575.534 361.227 575.599 360.948 575.732 360.699 575.857 360.477 576.037 360.289 576.255 360.156 576.499 360.008 576.767 359.907 577.048 359.855 577.37 359.791 577.699 359.76 578.028 359.763 578.498 359.747 578.966 359.836 579.397 360.025 579.792 360.229 580.116 360.547 580.329 360.937L579.456 361.452C579.34 361.208 579.144 361.012 578.9 360.896 578.624 360.787 578.328 360.736 578.031 360.746 577.842 360.746 577.654 360.758 577.468 360.785 577.301 360.807 577.138 360.851 576.982 360.916 576.852 360.968 576.735 361.05 576.642 361.154 576.556 361.254 576.512 361.382 576.515 361.513 576.511 361.636 576.556 361.756 576.642 361.846 576.735 361.94 576.85 362.009 576.975 362.05 577.132 362.104 577.293 362.141 577.458 362.161 577.649 362.181 577.84 362.189 578.032 362.185Z" fill="#E74E00" transform="matrix(1 0 0 1.00446 133.622 311.804)"/></g></svg>